# xmcd
#
# Track frame offsets: 
#        150
#        25932
#        53927
#        85652
#        106900
#        125950
#        130070
#        153577
#        179845
#        202437
#        228105
#        250275
#        272510
#        301432
#        324525
#
# Disc length: 4704 seconds
#
# Revision: 2
# Processed by: cddbd v1.5.2PL0 Copyright (c) Steve Scherf et al.
# Submitted via: ExactAudioCopy v0.95a5
#
DISCID=da125e0f
DTITLE=Ronny Jordan - A BRIGHTER DAY
DYEAR=2000
DGENRE=Jazz
TTITLE0=A Brighter Day
TTITLE1=Aftermath
TTITLE2=Mackin (feat. DJ Spinna)
TTITLE3=Why
TTITLE4=Mystic Voyage (feat. Roy Ayers)
TTITLE5=Breauxlude
TTITLE6=London Lowdown
TTITLE7=Two Worlds
TTITLE8=Mambo Inn
TTITLE9=Rio
TTITLE10=New Delhi
TTITLE11=Seeing Is Believing
TTITLE12=5/8 In Flow
TTITLE13=State Of Grace
TTITLE14=A Brighter Day (Remix)(feat. Mos Def)
EXTD=YEAR: 2000
EXTT0=
EXTT1=
EXTT2=
EXTT3=
EXTT4=
EXTT5=
EXTT6=
EXTT7=
EXTT8=
EXTT9=
EXTT10=
EXTT11=
EXTT12=
EXTT13=
EXTT14=
PLAYORDER=
